<svg xmlns="http://www.w3.org/2000/svg" viewBox="0 0 1024 50" width="100%">
  <path d="M 0 25 Q 21.33 25 42.67 12.5 Q 85.33 -12.5 128 12.5 Q 149.33 25 170.67 25 Q 192 25 213.33 12.5 Q 256 -12.5 298.67 12.5 Q 320 25 341.33 25 Q 362.67 25 384 12.5 Q 426.67 -12.5 469.33 12.5 Q 490.67 25 512 25 Q 533.33 25 554.67 12.5 Q 597.33 -12.5 640 12.5 Q 661.33 25 682.67 25 Q 704 25 725.33 12.5 Q 768 -12.5 810.67 12.5 Q 832 25 853.33 25 Q 874.67 25 896 12.5 Q 938.67 -12.5 981.33 12.5 Q 1002.67 25 1024 25 Q 1045.33 25 1066.67 12.5 Q 1109.33 -12.5 1152 12.5 Q 1173.33 25 1194.67 25 L 1024 50 L 0 50 Z" fill="#59afff"></path>
</svg>